<?xml version='1.0' encoding='UTF-8' standalone='no'?>
<!-- Created with Fritzing (http://www.fritzing.org/) -->
<svg xmlns:svg='http://www.w3.org/2000/svg' xmlns='http://www.w3.org/2000/svg' version='1.2' baseProfile='tiny' x='0in' y='0in' width='4.81333in' height='3.12866in' viewBox='0 0 346.56 225.264' >
<g partID='58640'><g transform='translate(86.042,202.968)' ><g transform='matrix(0,-1,1,0,0,0)'  ><g id="schematic">
<rect fill="none" x="7.57014" stroke-linecap="round" stroke="#000000" stroke-width="0.72" height="151.2" id="rect7" y="7.57879" width="57.6"/>
<text font-family="'Droid Sans'" fill="#000000" text-anchor="middle" x="36.3642" id="label" y="26.0814" font-size="4.32">Raspberry PI</text>
<text font-family="'Droid Sans'" fill="#555555" text-anchor="start" x="9.72" id="label0" y="145.664" font-size="3.528">GP14</text>
<text font-family="'Droid Sans'" fill="#555555" text-anchor="start" x="3.10949" id="text15" y="142.916" font-size="2.52">19</text>
<text font-family="'Droid Sans'" fill="#555555" text-anchor="start" x="9.40719" id="label1" y="152.839" font-size="3.528">GP15</text>
<text font-family="'Droid Sans'" fill="#555555" text-anchor="start" x="2.76187" id="text22" y="150.114" font-size="2.52">20</text>
<text font-family="'Droid Sans'" fill="#555555" text-anchor="middle" x="21.9123" id="text83" y="12.5311" font-size="3.528">SW CLK</text>
<g transform="scale(0.9998883,1.0001117)">
<text font-family="'Droid Sans'" fill="#555555" text-anchor="middle" x="19.2529" stroke-width="0.072" id="text51" y="5.70896" font-size="2.51972">41</text>
</g>
<text font-family="'Droid Sans'" fill="#555555" text-anchor="middle" x="36.2518" id="text87" y="12.5655" font-size="3.528">SW GND</text>
<g transform="scale(0.9998883,1.0001117)">
<text font-family="'Droid Sans'" fill="#555555" text-anchor="start" x="31.6522" stroke-width="0.072" id="text53" y="5.73474" font-size="2.51972">42</text>
</g>
<text font-family="'Droid Sans'" fill="#555555" text-anchor="end" x="63.2161" id="text79" y="152.839" font-size="3.528">GP16</text>
<text font-family="'Droid Sans'" fill="#555555" text-anchor="start" x="67.1622" id="text63" y="150.114" font-size="2.52">21</text>
<text font-family="'Droid Sans'" fill="#555555" text-anchor="end" x="63.0921" id="text81" y="145.639" font-size="3.528">GP17</text>
<text font-family="'Droid Sans'" fill="#555555" text-anchor="start" x="67.1844" id="text65" y="142.914" font-size="2.52">22</text>
<text font-family="'Droid Sans'" fill="#555555" text-anchor="start" x="9.72" id="text44" y="131.3" font-size="3.528">GP13</text>
<text font-family="'Droid Sans'" fill="#555555" text-anchor="start" x="3.10949" id="text46" y="128.552" font-size="2.52">17</text>
<text font-family="'Droid Sans'" fill="#555555" text-anchor="middle" x="36.2766" id="text48" y="156.351" font-size="3.528">GND</text>
<text font-family="'Droid Sans'" fill="#555555" text-anchor="start" x="9.72" id="text60" y="116.9" font-size="3.528">GP11</text>
<text font-family="'Droid Sans'" fill="#555555" text-anchor="start" x="3.10949" id="text62" y="114.152" font-size="2.52">15</text>
<text font-family="'Droid Sans'" fill="#555555" text-anchor="start" x="9.40719" id="text64" y="124.075" font-size="3.528">GP12</text>
<text font-family="'Droid Sans'" fill="#555555" text-anchor="start" x="2.76187" id="text66" y="121.35" font-size="2.52">16</text>
<text font-family="'Droid Sans'" fill="#555555" text-anchor="start" x="9.40719" id="text80" y="109.711" font-size="3.528">GP10</text>
<text font-family="'Droid Sans'" fill="#555555" text-anchor="start" x="2.76187" id="text82" y="106.986" font-size="2.52">14</text>
<text font-family="'Droid Sans'" fill="#555555" text-anchor="start" x="9.40719" id="text94" y="95.2748" font-size="3.528">GP9</text>
<text font-family="'Droid Sans'" fill="#555555" text-anchor="start" x="2.76187" id="text96" y="92.5502" font-size="2.52">12</text>
<text font-family="'Droid Sans'" fill="#555555" text-anchor="start" x="9.72" id="text148" y="80.8999" font-size="3.528">GP7</text>
<text font-family="'Droid Sans'" fill="#555555" text-anchor="start" x="3.10949" id="text150" y="78.1519" font-size="2.52">10</text>
<text font-family="'Droid Sans'" fill="#555555" text-anchor="start" x="9.40719" id="text152" y="88.0748" font-size="3.528">GP8</text>
<text font-family="'Droid Sans'" fill="#555555" text-anchor="start" x="2.76187" id="text154" y="85.3502" font-size="2.52">11</text>
<text font-family="'Droid Sans'" fill="#555555" text-anchor="start" x="9.40719" id="text168" y="73.7108" font-size="3.528">GP6</text>
<text font-family="'Droid Sans'" fill="#555555" text-anchor="start" x="4.15837" id="text170" y="71.0091" font-size="2.52">9</text>
<text font-family="'Droid Sans'" fill="#555555" text-anchor="start" x="9.72" id="text180" y="52.1359" font-size="3.528">GP4</text>
<text font-family="'Droid Sans'" fill="#555555" text-anchor="start" x="4.50598" id="text182" y="49.4108" font-size="2.52">6</text>
<text font-family="'Droid Sans'" fill="#555555" text-anchor="start" x="9.40719" id="text184" y="59.3108" font-size="3.528">GP5</text>
<text font-family="'Droid Sans'" fill="#555555" text-anchor="start" x="4.15837" id="text186" y="56.6091" font-size="2.52">7</text>
<text font-family="'Droid Sans'" fill="#555555" text-anchor="start" x="9.72" id="text196" y="37.7719" font-size="3.528">GP2</text>
<text font-family="'Droid Sans'" fill="#555555" text-anchor="start" x="4.50598" id="text198" y="35.0468" font-size="2.52">4</text>
<text font-family="'Droid Sans'" fill="#555555" text-anchor="start" x="9.40719" id="text200" y="44.9468" font-size="3.528">GP3</text>
<text font-family="'Droid Sans'" fill="#555555" text-anchor="start" x="4.15837" id="text202" y="42.2451" font-size="2.52">5</text>
<text font-family="'Droid Sans'" fill="#555555" text-anchor="start" x="23.6591" id="text214" y="162.395" font-size="2.52">3,8,13,18</text>
<text font-family="'Droid Sans'" fill="#555555" text-anchor="start" x="9.72" id="text220" y="23.3468" font-size="3.528">GP1</text>
<text font-family="'Droid Sans'" fill="#555555" text-anchor="start" x="4.50598" id="text222" y="20.6217" font-size="2.52">2</text>
<text font-family="'Droid Sans'" fill="#555555" text-anchor="start" x="9.40719" id="text228" y="16.0857" font-size="3.528">GP0</text>
<text font-family="'Droid Sans'" fill="#555555" text-anchor="start" x="4.15837" id="text230" y="13.384" font-size="2.52">1</text>
<text font-family="'Droid Sans'" fill="#555555" text-anchor="middle" x="50.6166" id="text236" y="12.5655" font-size="3.528">SW DIO</text>
<g transform="scale(0.9998883,1.0001117)">
<text font-family="'Droid Sans'" fill="#555555" text-anchor="start" x="46.0153" stroke-width="0.072" id="text238" y="5.73474" font-size="2.51972">43</text>
</g>
<text font-family="'Droid Sans'" fill="#555555" text-anchor="end" x="63.0921" id="text248" y="131.24" font-size="3.528">GP18</text>
<text font-family="'Droid Sans'" fill="#555555" text-anchor="start" x="67.1844" id="text250" y="128.516" font-size="2.52">24</text>
<text font-family="'Droid Sans'" fill="#555555" text-anchor="end" x="63.2161" id="text260" y="124.04" font-size="3.528">GP19</text>
<text font-family="'Droid Sans'" fill="#555555" text-anchor="start" x="67.1622" id="text262" y="121.316" font-size="2.52">25</text>
<text font-family="'Droid Sans'" fill="#555555" text-anchor="end" x="63.0921" id="text264" y="116.84" font-size="3.528">GP20</text>
<text font-family="'Droid Sans'" fill="#555555" text-anchor="start" x="67.1844" id="text266" y="114.116" font-size="2.52">26</text>
<text font-family="'Droid Sans'" fill="#555555" text-anchor="end" x="63.2161" id="text276" y="109.642" font-size="3.528">GP21</text>
<text font-family="'Droid Sans'" fill="#555555" text-anchor="start" x="67.1622" id="text278" y="106.917" font-size="2.52">27</text>
<text font-family="'Droid Sans'" fill="#555555" text-anchor="end" x="63.2161" id="text292" y="95.2403" font-size="3.528">GP22</text>
<text font-family="'Droid Sans'" fill="#555555" text-anchor="start" x="67.1622" id="text294" y="92.5157" font-size="2.52">29</text>
<text font-family="'Droid Sans'" fill="#555555" text-anchor="end" x="63.0921" id="text296" y="88.0403" font-size="3.528">RUN</text>
<text font-family="'Droid Sans'" fill="#555555" text-anchor="start" x="67.1844" id="text298" y="85.3157" font-size="2.52">30</text>
<text font-family="'Droid Sans'" fill="#555555" text-anchor="end" x="63.2161" id="text308" y="80.8419" font-size="3.528">GP26_A0</text>
<text font-family="'Droid Sans'" fill="#555555" text-anchor="start" x="67.1622" id="text310" y="78.1173" font-size="2.52">31</text>
<text font-family="'Droid Sans'" fill="#555555" text-anchor="end" x="63.0921" id="text312" y="73.6419" font-size="3.528">GP27_A1</text>
<text font-family="'Droid Sans'" fill="#555555" text-anchor="start" x="67.1844" id="text314" y="70.9173" font-size="2.52">32</text>
<text font-family="'Droid Sans'" fill="#555555" text-anchor="end" x="63.2161" id="text324" y="66.4419" font-size="3.528">AGND</text>
<text font-family="'Droid Sans'" fill="#555555" text-anchor="start" x="67.1622" id="text326" y="63.7173" font-size="2.52">33</text>
<text font-family="'Droid Sans'" fill="#555555" text-anchor="end" x="63.0921" id="text328" y="59.2419" font-size="3.528">GP28_A2</text>
<text font-family="'Droid Sans'" fill="#555555" text-anchor="start" x="67.1844" id="text330" y="56.5173" font-size="2.52">34</text>
<text font-family="'Droid Sans'" fill="#555555" text-anchor="end" x="63.2161" id="text340" y="52.0434" font-size="3.528">ADC_VREF</text>
<text font-family="'Droid Sans'" fill="#555555" text-anchor="start" x="67.1622" id="text342" y="49.3188" font-size="2.52">35</text>
<text font-family="'Droid Sans'" fill="#555555" text-anchor="end" x="63.0921" id="text344" y="44.8434" font-size="3.528">3V3</text>
<text font-family="'Droid Sans'" fill="#555555" text-anchor="start" x="67.1844" id="text346" y="42.1188" font-size="2.52">36</text>
<text font-family="'Droid Sans'" fill="#555555" text-anchor="end" x="63.2161" id="text356" y="37.6403" font-size="3.528">3V3_EN</text>
<text font-family="'Droid Sans'" fill="#555555" text-anchor="start" x="67.1622" id="text358" y="34.9157" font-size="2.52">37</text>
<text font-family="'Droid Sans'" fill="#555555" text-anchor="end" x="63.2161" id="text372" y="23.2419" font-size="3.528">VSS</text>
<text font-family="'Droid Sans'" fill="#555555" text-anchor="start" x="67.1622" id="text374" y="20.5173" font-size="2.52">39</text>
<text font-family="'Droid Sans'" fill="#555555" text-anchor="end" x="63.0921" id="text376" y="16.0419" font-size="3.528">VBUS</text>
<text font-family="'Droid Sans'" fill="#555555" text-anchor="start" x="67.1844" id="text378" y="13.3173" font-size="2.52">40</text>
<text font-family="'Droid Sans'" fill="#000000" text-anchor="middle" x="36.3642" id="text388" y="33.2938" font-size="4.32">Pico</text>
<line fill="none" y2="14.8357" x2="7.2188" y1="14.8357" stroke-linecap="round" stroke="#555555" stroke-width="0.72" x1="0.365127" id="connector0pin"/>
<g fill="none" x="0.0101433" stroke-width="0" height="0.72" id="connector0terminal" y="14.4657" width="0.72"/>
<line fill="none" x2="7.2188" y2="22.0717" y1="22.0717" stroke-linecap="round" stroke="#555555" stroke-width="0.72" x1="0.365127" id="connector1pin"/>
<g fill="none" x="0.0101433" stroke-width="0" height="0.72" id="connector1terminal" y="21.7217" width="0.72"/>
<line fill="none" x2="36.36" y2="159.101" y1="165.955" stroke-linecap="round" stroke="#555555" stroke-width="0.72" x1="36.36" id="connector2pin"/>
<g transform="rotate(-90)">
<g fill="none" x="-166.32" stroke-width="0" height="0.72" id="connector2terminal" y="36" width="0.72"/>
</g>
<line fill="none" y2="36.4968" x2="7.2188" y1="36.4968" stroke-linecap="round" stroke="#555555" stroke-width="0.72" x1="0.365127" id="connector3pin"/>
<g fill="none" x="0.0101433" stroke-width="0" height="0.72" id="connector3terminal" y="36.1468" width="0.72"/>
<line fill="none" y2="43.6968" x2="7.2188" y1="43.6968" stroke-linecap="round" stroke="#555555" stroke-width="0.72" x1="0.365127" id="connector4pin"/>
<g fill="none" x="0.0101433" stroke-width="0" height="0.72" id="connector4terminal" y="43.3268" width="0.72"/>
<line fill="none" x2="7.2188" y2="50.8608" y1="50.8608" stroke-linecap="round" stroke="#555555" stroke-width="0.72" x1="0.365127" id="connector5pin"/>
<g fill="none" x="0.0101433" stroke-width="0" height="0.72" id="connector5terminal" y="50.5108" width="0.72"/>
<line fill="none" x2="7.2188" y2="58.0608" y1="58.0608" stroke-linecap="round" stroke="#555555" stroke-width="0.72" x1="0.365127" id="connector6pin"/>
<g fill="none" x="0.0101433" stroke-width="0" height="0.72" id="connector6terminal" y="57.6908" width="0.72"/>
<line fill="none" x2="36.36" y2="159.101" y1="165.955" stroke-linecap="round" stroke="#555555" stroke-width="0.72" x1="36.36" id="connector7pin"/>
<g fill="none" x="36" stroke-width="0" height="0.72" id="connector7terminal" y="165.6" width="0.72"/>
<line fill="none" x2="7.2188" y2="72.4608" y1="72.4608" stroke-linecap="round" stroke="#555555" stroke-width="0.72" x1="0.365127" id="connector8pin"/>
<g fill="none" x="0.0101433" stroke-width="0" height="0.72" id="connector8terminal" y="72.0908" width="0.72"/>
<line fill="none" y2="79.6248" x2="7.2188" y1="79.6248" stroke-linecap="round" stroke="#555555" stroke-width="0.72" x1="0.365127" id="connector9pin"/>
<g fill="none" x="0.0101433" stroke-width="0" height="0.72" id="connector9terminal" y="79.2748" width="0.72"/>
<line fill="none" y2="86.8248" x2="7.2188" y1="86.8248" stroke-linecap="round" stroke="#555555" stroke-width="0.72" x1="0.365127" id="connector10pin"/>
<g fill="none" x="0.0101433" stroke-width="0" height="0.72" id="connector10terminal" y="86.4548" width="0.72"/>
<line fill="none" y2="94.0248" x2="7.2188" y1="94.0248" stroke-linecap="round" stroke="#555555" stroke-width="0.72" x1="0.365127" id="connector11pin"/>
<g fill="none" x="0.0101433" stroke-width="0" height="0.72" id="connector11terminal" y="93.6548" width="0.72"/>
<line fill="none" x2="36.36" y2="159.101" y1="165.955" stroke-linecap="round" stroke="#555555" stroke-width="0.72" x1="36.36" id="connector12pin"/>
<g fill="none" x="36" stroke-width="0" height="0.72" id="connector12terminal" y="165.6" width="0.72"/>
<line fill="none" x2="7.2188" y2="108.461" y1="108.461" stroke-linecap="round" stroke="#555555" stroke-width="0.72" x1="0.365127" id="connector13pin"/>
<g fill="none" x="0.0101433" stroke-width="0" height="0.72" id="connector13terminal" y="108.091" width="0.72"/>
<line fill="none" y2="115.625" x2="7.2188" y1="115.625" stroke-linecap="round" stroke="#555555" stroke-width="0.72" x1="0.365127" id="connector14pin"/>
<g fill="none" x="0.0101433" stroke-width="0" height="0.72" id="connector14terminal" y="115.275" width="0.72"/>
<line fill="none" y2="122.825" x2="7.2188" y1="122.825" stroke-linecap="round" stroke="#555555" stroke-width="0.72" x1="0.365127" id="connector15pin"/>
<g fill="none" x="0.0101433" stroke-width="0" height="0.72" id="connector15terminal" y="122.455" width="0.72"/>
<line fill="none" y2="130.025" x2="7.2188" y1="130.025" stroke-linecap="round" stroke="#555555" stroke-width="0.72" x1="0.365127" id="connector16pin"/>
<g fill="none" x="0.0101433" stroke-width="0" height="0.72" id="connector16terminal" y="129.675" width="0.72"/>
<line fill="none" y2="159.101" x2="36.36" y1="165.955" stroke-linecap="round" stroke="#555555" stroke-width="0.72" x1="36.36" id="connector17pin"/>
<g fill="none" x="36" stroke-width="0" height="0.72" id="connector17terminal" y="165.6" width="0.72"/>
<line fill="none" x2="7.2188" y2="144.389" y1="144.389" stroke-linecap="round" stroke="#555555" stroke-width="0.72" x1="0.365127" id="connector18pin"/>
<g fill="none" x="0.0101433" stroke-width="0" height="0.72" id="connector18terminal" y="144.039" width="0.72"/>
<line fill="none" x2="7.2188" y2="151.589" y1="151.589" stroke-linecap="round" stroke="#555555" stroke-width="0.72" x1="0.365127" id="connector19pin"/>
<g fill="none" x="0.0101433" stroke-width="0" height="0.72" id="connector19terminal" y="151.219" width="0.72"/>
<line fill="none" y2="151.555" x2="72.3334" y1="151.555" stroke-linecap="round" stroke="#555555" stroke-width="0.72" x1="65.4934" id="connector20pin"/>
<g fill="none" x="71.9734" stroke-width="0" height="0.72" id="connector20terminal" y="151.195" width="0.72"/>
<line fill="none" y2="144.355" x2="72.3334" y1="144.355" stroke-linecap="round" stroke="#555555" stroke-width="0.72" x1="65.4934" id="connector21pin"/>
<g fill="none" x="71.9734" stroke-width="0" height="0.72" id="connector21terminal" y="144.067" width="0.72"/>
<line fill="none" x2="36.36" y2="165.955" y1="159.115" stroke-linecap="round" stroke="#555555" stroke-width="0.72" x1="36.36" id="connector22pin"/>
<g fill="none" x="36" stroke-width="0" height="0.72" id="connector22terminal" y="165.6" width="0.72"/>
<line fill="none" x2="72.3334" y2="129.956" y1="129.956" stroke-linecap="round" stroke="#555555" stroke-width="0.72" x1="65.4934" id="connector23pin"/>
<g fill="none" x="71.9734" stroke-width="0" height="0.72" id="connector23terminal" y="129.668" width="0.72"/>
<line fill="none" x2="72.3334" y2="122.756" y1="122.756" stroke-linecap="round" stroke="#555555" stroke-width="0.72" x1="65.4934" id="connector24pin"/>
<g fill="none" x="71.9734" stroke-width="0" height="0.72" id="connector24terminal" y="122.396" width="0.72"/>
<line fill="none" x2="72.3334" y2="115.556" y1="115.556" stroke-linecap="round" stroke="#555555" stroke-width="0.72" x1="65.4934" id="connector25pin"/>
<g fill="none" x="71.9734" stroke-width="0" height="0.72" id="connector25terminal" y="115.268" width="0.72"/>
<line fill="none" y2="108.358" x2="72.3334" y1="108.358" stroke-linecap="round" stroke="#555555" stroke-width="0.72" x1="65.4934" id="connector26pin"/>
<g fill="none" x="71.9734" stroke-width="0" height="0.72" id="connector26terminal" y="107.998" width="0.72"/>
<line fill="none" y2="165.955" x2="36.36" y1="159.115" stroke-linecap="round" stroke="#555555" stroke-width="0.72" x1="36.36" id="connector27pin"/>
<g fill="none" x="36" stroke-width="0" height="0.72" id="connector27terminal" y="165.6" width="0.72"/>
<line fill="none" x2="72.3334" y2="93.9564" y1="93.9564" stroke-linecap="round" stroke="#555555" stroke-width="0.72" x1="65.4934" id="connector28pin"/>
<g fill="none" x="71.9734" stroke-width="0" height="0.72" id="connector28terminal" y="93.5964" width="0.72"/>
<line fill="none" x2="72.3334" y2="86.7564" y1="86.7564" stroke-linecap="round" stroke="#555555" stroke-width="0.72" x1="65.4934" id="connector29pin"/>
<g fill="none" x="71.9734" stroke-width="0" height="0.72" id="connector29terminal" y="86.4684" width="0.72"/>
<line fill="none" y2="79.558" x2="72.3334" y1="79.558" stroke-linecap="round" stroke="#555555" stroke-width="0.72" x1="65.4934" id="connector30pin"/>
<g fill="none" x="71.9734" stroke-width="0" height="0.72" id="connector30terminal" y="79.198" width="0.72"/>
<line fill="none" y2="72.358" x2="72.3334" y1="72.358" stroke-linecap="round" stroke="#555555" stroke-width="0.72" x1="65.4934" id="connector31pin"/>
<g fill="none" x="71.9734" stroke-width="0" height="0.72" id="connector31terminal" y="72.07" width="0.72"/>
<line fill="none" y2="65.158" x2="72.3334" y1="65.158" stroke-linecap="round" stroke="#555555" stroke-width="0.72" x1="65.4934" id="connector32pin"/>
<g fill="none" x="71.9734" stroke-width="0" height="0.72" id="connector32terminal" y="64.798" width="0.72"/>
<line fill="none" y2="57.958" x2="72.3334" y1="57.958" stroke-linecap="round" stroke="#555555" stroke-width="0.72" x1="65.4934" id="connector33pin"/>
<g fill="none" x="71.9734" stroke-width="0" height="0.72" id="connector33terminal" y="57.67" width="0.72"/>
<line fill="none" x2="72.3334" y2="50.7595" y1="50.7595" stroke-linecap="round" stroke="#555555" stroke-width="0.72" x1="65.4934" id="connector34pin"/>
<g fill="none" x="71.9734" stroke-width="0" height="0.72" id="connector34terminal" y="50.3995" width="0.72"/>
<line fill="none" x2="72.3334" y2="43.5595" y1="43.5595" stroke-linecap="round" stroke="#555555" stroke-width="0.72" x1="65.4934" id="connector35pin"/>
<g fill="none" x="71.9734" stroke-width="0" height="0.72" id="connector35terminal" y="43.2715" width="0.72"/>
<line fill="none" x2="72.3334" y2="36.3564" y1="36.3564" stroke-linecap="round" stroke="#555555" stroke-width="0.72" x1="65.4934" id="connector36pin"/>
<g fill="none" x="71.9734" stroke-width="0" height="0.72" id="connector36terminal" y="35.9964" width="0.72"/>
<line fill="none" x2="36.36" y2="159.115" y1="165.955" stroke-linecap="round" stroke="#555555" stroke-width="0.72" x1="36.36" id="connector37pin"/>
<g fill="none" x="36" stroke-width="0" height="0.72" id="connector37terminal" y="165.6" width="0.72"/>
<line fill="none" y2="21.9579" x2="72.3334" y1="21.9579" stroke-linecap="round" stroke="#555555" stroke-width="0.72" x1="65.4934" id="connector38pin"/>
<g fill="none" x="71.9734" stroke-width="0" height="0.72" id="connector38terminal" y="21.5979" width="0.72"/>
<line fill="none" y2="14.758" x2="72.3334" y1="14.758" stroke-linecap="round" stroke="#555555" stroke-width="0.72" x1="65.4934" id="connector39pin"/>
<g fill="none" x="71.9734" stroke-width="0" height="0.72" id="connector39terminal" y="14.47" width="0.72"/>
<line fill="none" y2="7.55487" x2="21.9481" y1="0.714868" stroke-linecap="round" stroke="#555555" stroke-width="0.72" x1="21.9481" id="connector40pin"/>
<g fill="none" x="21.5881" stroke-width="0" height="0.72" id="connector40terminal" y="1.02318e-15" width="0.72"/>
<line fill="none" x2="36.3488" y2="7.55487" y1="0.714868" stroke-linecap="round" stroke="#555555" stroke-width="0.72" x1="36.3488" id="connector41pin"/>
<g fill="none" x="35.9888" stroke-width="0" height="0.72" id="connector41terminal" y="1.02318e-15" width="0.72"/>
<line fill="none" y2="7.55487" x2="50.7135" y1="0.714868" stroke-linecap="round" stroke="#555555" stroke-width="0.72" x1="50.7135" id="connector42pin"/>
<g fill="none" x="50.3535" stroke-width="0" height="0.72" id="connector42terminal" y="1.02318e-15" width="0.72"/>
<text font-family="'Droid Sans'" fill="#555555" text-anchor="start" x="38.0591" id="text361" y="162.38" font-size="2.52">23,28,38</text>
</g>
</g></g></g><g partID='72930'><g transform='translate(155.699,72.8179)' ><g id="schematic">
<g>
<path d="M13.5,14.966L9.9,14.966c-0.193,0,-0.35,-0.156,-0.35,-0.35s0.156,-0.35,0.35,-0.35L13.5,14.266c0.193,0,0.35,0.156,0.35,0.35S13.694,14.966,13.5,14.966z"/>
</g>
<g>
<path d="M9.9,14.966L6.3,14.966c-0.193,0,-0.35,-0.156,-0.35,-0.35s0.157,-0.35,0.35,-0.35l3.6,0c0.193,0,0.35,0.156,0.35,0.35S10.093,14.966,9.9,14.966z"/>
</g>
<g>
<polygon fill="#FFFFFF" points="9.9,14.616,6.3,7.416,9.9,7.416,13.5,7.416"/>
<path d="M9.9,15.398L5.734,7.066l8.333,0L9.9,15.398zM6.866,7.766L9.9,13.834l3.034,-6.068L6.866,7.766z"/>
</g>
<g>
<path d="M9.9,14.841c-0.124,0,-0.225,-0.101,-0.225,-0.225l0,-7.2c0,-0.124,0.101,-0.225,0.225,-0.225s0.225,0.101,0.225,0.225l0,7.2C10.124,14.74,10.024,14.841,9.9,14.841z"/>
</g>
<g>
<path d="M1.8,12.141c-0.058,0,-0.115,-0.021,-0.159,-0.065c-0.088,-0.088,-0.088,-0.23,0,-0.318l2.34,-2.341c0.088,-0.088,0.23,-0.088,0.318,0s0.088,0.23,0,0.318l-2.34,2.341C1.915,12.12,1.858,12.141,1.8,12.141z"/>
</g>
<g>
<path d="M2.16,15.381c-0.058,0,-0.115,-0.021,-0.159,-0.065c-0.088,-0.088,-0.088,-0.23,0,-0.318l2.34,-2.34c0.088,-0.088,0.23,-0.088,0.318,0s0.088,0.23,0,0.318l-2.34,2.34C2.276,15.359,2.218,15.381,2.16,15.381z"/>
</g>
<g id="connector0pin">
<path fill="#787878" d="M9.9,22.166c-0.193,0,-0.35,-0.156,-0.35,-0.35l0,-7.2c0,-0.193,0.156,-0.35,0.35,-0.35s0.35,0.156,0.35,0.35l0,7.2C10.249,22.01,10.093,22.166,9.9,22.166z"/>
</g>
<g id="connector0terminal">
<rect fill="none" x="9.9" height="0.001" y="21.816" width="0.001"/>
</g>
<g transform="matrix(1, 0, 0, 1, 3.429, 6.4262)">
<g>
<g transform="rotate(270)">
<g>
<g enable-background="new    ">
<path fill="#787878" d="M-11.647,5.54l-0.891,0L-12.538,5.388l0.342,-0.372c0.049,-0.053,0.093,-0.101,0.131,-0.145s0.071,-0.086,0.099,-0.128c0.026,-0.042,0.047,-0.084,0.062,-0.125c0.015,-0.043,0.021,-0.088,0.021,-0.138c0,-0.038,-0.005,-0.072,-0.017,-0.102s-0.027,-0.054,-0.047,-0.075c-0.021,-0.02,-0.045,-0.035,-0.073,-0.046s-0.06,-0.016,-0.094,-0.016c-0.062,0,-0.118,0.013,-0.167,0.038c-0.051,0.024,-0.098,0.057,-0.143,0.096l-0.1,-0.116c0.025,-0.023,0.055,-0.046,0.084,-0.065c0.029,-0.021,0.063,-0.039,0.097,-0.054s0.071,-0.026,0.109,-0.036c0.038,-0.008,0.079,-0.013,0.121,-0.013c0.063,0,0.119,0.009,0.169,0.026c0.051,0.018,0.094,0.043,0.129,0.076c0.035,0.032,0.063,0.072,0.082,0.119c0.019,0.048,0.028,0.101,0.028,0.16c0,0.056,-0.009,0.108,-0.026,0.158c-0.017,0.05,-0.041,0.1,-0.07,0.148c-0.031,0.048,-0.066,0.097,-0.109,0.146c-0.041,0.049,-0.087,0.1,-0.136,0.152L-12.32,5.37l0,0.008l0.673,0L-11.647,5.54z"/>
</g>
</g>
</g>
</g>
</g>
<g id="connector1pin">
<path fill="#787878" d="M9.9,7.766c-0.193,0,-0.35,-0.157,-0.35,-0.35l0,-7.2c0,-0.193,0.156,-0.35,0.35,-0.35s0.35,0.157,0.35,0.35l0,7.2C10.249,7.609,10.093,7.766,9.9,7.766z"/>
</g>
<g id="connector1terminal">
<polygon fill="none" points="9.9,0.216,9.901,0.216,9.901,0.216"/>
</g>
<g transform="matrix(1, 0, 0, 1, 3.429, 1.3462)">
<g>
<g transform="rotate(270)">
<g>
<g enable-background="new    ">
<path fill="#787878" d="M-2.616,5.54l-0.172,0L-2.788,4.648c0,-0.028,0,-0.058,0,-0.09s0.001,-0.063,0.002,-0.095c0.001,-0.032,0.002,-0.063,0.003,-0.092c0.001,-0.028,0.002,-0.054,0.002,-0.076c-0.011,0.012,-0.021,0.021,-0.029,0.03s-0.017,0.017,-0.026,0.024s-0.018,0.016,-0.028,0.025c-0.01,0.008,-0.021,0.019,-0.035,0.03l-0.145,0.118l-0.094,-0.12l0.374,-0.292l0.146,0L-2.618,5.54z"/>
</g>
</g>
</g>
</g>
</g>
<g>
<path d="M0.18,13.536l1.08,-2.521l1.44,1.438L0.18,13.536z"/>
</g>
<g>
<path d="M0.54,16.776l1.08,-2.521l1.438,1.438L0.54,16.776z"/>
</g>
</g>
</g></g><g partID='72870'><g transform='translate(225.659,65.4999)' ><g transform='matrix(1,0,0,1,0,0)'  ><g id="schematic" xmlns="http://www.w3.org/2000/svg">
<line fill="none" x2="4.741" y2="7.534" y1="9.333" stroke-linecap="round" stroke="#000000" stroke-width="0.7" x1="4.741" xmlns="http://www.w3.org/2000/svg"/>
<line fill="none" x2="1.142" y2="9.333" y1="21.934" stroke-linecap="round" stroke="#000000" stroke-width="0.7" x1="4.741" xmlns="http://www.w3.org/2000/svg"/>
<circle fill="none" stroke="#000000" stroke-width="0.7" r="0.36" xmlns="http://www.w3.org/2000/svg" cy="21.934" cx="4.741"/>
<circle fill="none" stroke="#000000" stroke-width="0.7" r="0.36" xmlns="http://www.w3.org/2000/svg" cy="7.534" cx="4.741"/>
<line fill="none" x2="4.741" y2="21.934" y1="29.135" stroke-linecap="round" stroke="#555555" stroke-width="0.7" x1="4.741" id="connector0pin" xmlns="http://www.w3.org/2000/svg"/>
<g fill="none" x="4.74" height="0.001" id="connector0terminal" xmlns="http://www.w3.org/2000/svg" y="29.134" width="0.002"/>
<line fill="none" x2="4.741" y2="7.534" y1="0.333" stroke-linecap="round" stroke="#555555" stroke-width="0.7" x1="4.741" id="connector1pin" xmlns="http://www.w3.org/2000/svg"/>
<g fill="none" x="4.741" height="0.001" id="connector1terminal" xmlns="http://www.w3.org/2000/svg" y="0.333" width="0"/>
</g>
</g></g></g><g partID='72850'><g transform='translate(211.259,65.4999)' ><g transform='matrix(1,0,0,1,0,0)'  ><g id="schematic" xmlns="http://www.w3.org/2000/svg">
<line fill="none" x2="4.741" y2="7.534" y1="9.333" stroke-linecap="round" stroke="#000000" stroke-width="0.7" x1="4.741" xmlns="http://www.w3.org/2000/svg"/>
<line fill="none" x2="1.142" y2="9.333" y1="21.934" stroke-linecap="round" stroke="#000000" stroke-width="0.7" x1="4.741" xmlns="http://www.w3.org/2000/svg"/>
<circle fill="none" stroke="#000000" stroke-width="0.7" r="0.36" xmlns="http://www.w3.org/2000/svg" cy="21.934" cx="4.741"/>
<circle fill="none" stroke="#000000" stroke-width="0.7" r="0.36" xmlns="http://www.w3.org/2000/svg" cy="7.534" cx="4.741"/>
<line fill="none" x2="4.741" y2="21.934" y1="29.135" stroke-linecap="round" stroke="#555555" stroke-width="0.7" x1="4.741" id="connector0pin" xmlns="http://www.w3.org/2000/svg"/>
<g fill="none" x="4.74" height="0.001" id="connector0terminal" xmlns="http://www.w3.org/2000/svg" y="29.134" width="0.002"/>
<line fill="none" x2="4.741" y2="7.534" y1="0.333" stroke-linecap="round" stroke="#555555" stroke-width="0.7" x1="4.741" id="connector1pin" xmlns="http://www.w3.org/2000/svg"/>
<g fill="none" x="4.741" height="0.001" id="connector1terminal" xmlns="http://www.w3.org/2000/svg" y="0.333" width="0"/>
</g>
</g></g></g><g partID='72830'><g transform='translate(196.859,65.4999)' ><g transform='matrix(1,0,0,1,0,0)'  ><g id="schematic" xmlns="http://www.w3.org/2000/svg">
<line fill="none" x2="4.741" y2="7.534" y1="9.333" stroke-linecap="round" stroke="#000000" stroke-width="0.7" x1="4.741" xmlns="http://www.w3.org/2000/svg"/>
<line fill="none" x2="1.142" y2="9.333" y1="21.934" stroke-linecap="round" stroke="#000000" stroke-width="0.7" x1="4.741" xmlns="http://www.w3.org/2000/svg"/>
<circle fill="none" stroke="#000000" stroke-width="0.7" r="0.36" xmlns="http://www.w3.org/2000/svg" cy="21.934" cx="4.741"/>
<circle fill="none" stroke="#000000" stroke-width="0.7" r="0.36" xmlns="http://www.w3.org/2000/svg" cy="7.534" cx="4.741"/>
<line fill="none" x2="4.741" y2="21.934" y1="29.135" stroke-linecap="round" stroke="#555555" stroke-width="0.7" x1="4.741" id="connector0pin" xmlns="http://www.w3.org/2000/svg"/>
<g fill="none" x="4.74" height="0.001" id="connector0terminal" xmlns="http://www.w3.org/2000/svg" y="29.134" width="0.002"/>
<line fill="none" x2="4.741" y2="7.534" y1="0.333" stroke-linecap="round" stroke="#555555" stroke-width="0.7" x1="4.741" id="connector1pin" xmlns="http://www.w3.org/2000/svg"/>
<g fill="none" x="4.741" height="0.001" id="connector1terminal" xmlns="http://www.w3.org/2000/svg" y="0.333" width="0"/>
</g>
</g></g></g><g partID='72780'><g transform='translate(182.459,65.4999)' ><g id="schematic" xmlns="http://www.w3.org/2000/svg">
<line fill="none" x2="4.741" y2="7.534" y1="9.333" stroke-linecap="round" stroke="#000000" stroke-width="0.7" x1="4.741" xmlns="http://www.w3.org/2000/svg"/>
<line fill="none" x2="1.142" y2="9.333" y1="21.934" stroke-linecap="round" stroke="#000000" stroke-width="0.7" x1="4.741" xmlns="http://www.w3.org/2000/svg"/>
<circle fill="none" stroke="#000000" stroke-width="0.7" r="0.36" xmlns="http://www.w3.org/2000/svg" cy="21.934" cx="4.741"/>
<circle fill="none" stroke="#000000" stroke-width="0.7" r="0.36" xmlns="http://www.w3.org/2000/svg" cy="7.534" cx="4.741"/>
<line fill="none" x2="4.741" y2="21.934" y1="29.135" stroke-linecap="round" stroke="#555555" stroke-width="0.7" x1="4.741" id="connector0pin" xmlns="http://www.w3.org/2000/svg"/>
<g fill="none" x="4.74" height="0.001" id="connector0terminal" xmlns="http://www.w3.org/2000/svg" y="29.134" width="0.002"/>
<line fill="none" x2="4.741" y2="7.534" y1="0.333" stroke-linecap="round" stroke="#555555" stroke-width="0.7" x1="4.741" id="connector1pin" xmlns="http://www.w3.org/2000/svg"/>
<g fill="none" x="4.741" height="0.001" id="connector1terminal" xmlns="http://www.w3.org/2000/svg" y="0.333" width="0"/>
</g>
</g></g><g partID='854371280'><g transform='translate(345.329,19.7296)' ><g transform='matrix(0,1,-1,0,0,0)'  ><g transform="matrix(1, 0, 0, 1, -7.18992, 6.56863)">
<g id="schematic">
<g gorn="0.4.0.0.0">
<rect fill="none" x="7.54992" stroke-linecap="round" style="stroke-miterlimit:4;stroke-dasharray:none" stroke="#000000" stroke-width="0.72" height="72.3391" id="rect835" gorn="0.4.0.0.0.0" y="0.360001" width="52.4966"/>
<text font-family="DroidSans" fill="#000000" xmlns:xml="http://www.w3.org/XML/1998/namespace" x="10.08" id="textKY040RE" gorn="0.4.0.0.0.1" xml:space="preserve" y="18.72" font-size="5.76">KY-040</text>
<text font-family="DroidSans" fill="#000000" xmlns:xml="http://www.w3.org/XML/1998/namespace" x="10.08" id="text921" gorn="0.4.0.0.0.2" xml:space="preserve" y="31.68" font-size="5.76">Rotary</text>
<text font-family="DroidSans" fill="#000000" xmlns:xml="http://www.w3.org/XML/1998/namespace" x="10.08" id="text923" gorn="0.4.0.0.0.3" xml:space="preserve" y="43.2" font-size="5.76">Encoder</text>
<g style="stroke-miterlimit:4;stroke-dasharray:none" stroke-width="0.0708661" id="g841" gorn="0.4.0.0.0.4">
<text font-family="DroidSans" fill="#555555" x="50.4" style="stroke-miterlimit:4;stroke-dasharray:none" stroke-width="0.0708661" id="textSW" gorn="0.4.0.0.0.4.0" y="23.4" font-size="3.6">SW</text>
<text font-family="DroidSans" fill="#555555" x="51.264" style="stroke-miterlimit:4;stroke-dasharray:none" stroke-width="0.0708661" id="textDT" gorn="0.4.0.0.0.4.1" y="37.8" font-size="3.6">DT</text>
<text font-family="DroidSans" fill="#555555" x="49.68" style="stroke-miterlimit:4;stroke-dasharray:none" stroke-width="0.0708661" id="textCLK" gorn="0.4.0.0.0.4.2" y="52.2" font-size="3.6">CLK</text>
</g>
<g style="stroke-miterlimit:4;stroke-dasharray:none" stroke-width="0.0708661" id="g853" gorn="0.4.0.0.0.5">
<text font-family="DroidSans" fill="#555555" x="32.76" style="stroke-miterlimit:4;stroke-dasharray:none" stroke-width="0.0708661" id="textVcc" gorn="0.4.0.0.0.5.0" y="7.56" font-size="3.6">+</text>
</g>
<g style="stroke-miterlimit:4;stroke-dasharray:none" stroke-width="0.0708661" id="g847" gorn="0.4.0.0.0.6">
<text font-family="DroidSans" fill="#555555" x="29.88" style="stroke-miterlimit:4;stroke-dasharray:none" stroke-width="0.0708661" id="textGND" gorn="0.4.0.0.0.6.0" y="68.4" font-size="3.6">GND</text>
</g>
<line fill="none" y2="50.76" x2="67.32" y1="50.76" stroke-linecap="round" stroke="#555555" stroke-width="0.72" x1="60.12" id="connector4pin" gorn="0.4.0.0.0.7"/>
<g fill="none" x="67.6721" stroke="none" stroke-width="0" height="0.00144" id="connector4terminal" y="50.7593" width="0.01584"/>
<line fill="none" y2="36.36" x2="67.32" y1="36.36" stroke-linecap="round" style="stroke-miterlimit:4;stroke-dasharray:none" stroke="#555555" stroke-width="0.72" x1="60.12" id="connector3pin" gorn="0.4.0.0.0.9"/>
<g fill="none" x="67.6868" stroke="none" stroke-width="0" height="0.00149904" id="connector3terminal" y="36.3593" width="0.015899"/>
<line fill="none" y2="21.96" x2="67.32" y1="21.96" stroke-linecap="round" stroke="#555555" stroke-width="0.72" x1="60.12" id="connector1pin" gorn="0.4.0.0.0.11"/>
<rect fill="none" x="67.6721" stroke="none" stroke-width="0" height="0.00144" gorn="0.4.0.0.0.12" y="21.9593" width="0.01584"/>
<line fill="none" y2="-6.24" x2="33.7999" y1="0.36" stroke-linecap="round" style="stroke-miterlimit:4;stroke-dasharray:none" stroke="#555555" stroke-width="0.72" x1="33.7999" id="connector2pin" gorn="0.4.0.0.0.13"/>
<g fill="none" x="33.7992" stroke="none" stroke-width="0" height="0.014699" id="connector2terminal" y="-6.62211" width="0.00149904"/>
<rect fill="none" x="33.8393" stroke="none" stroke-width="0" height="0.014699" gorn="0.4.0.0.0.14" y="-6.62211" width="0.00149904"/>
<line fill="none" y2="79.201" x2="33.7999" y1="72.6556" stroke-linecap="round" style="stroke-miterlimit:4;stroke-dasharray:none" stroke="#555555" stroke-width="0.72" x1="33.7999" id="connector0pin" gorn="0.4.0.0.0.15"/>
<g fill="none" x="33.7992" stroke="none" stroke-width="0" height="0.0145899" id="connector0terminal" y="79.5686" width="0.00149904"/>
</g>
</g>
</g>
</g></g></g><g partID='854374070'><g transform='translate(162.504,73.3846)' ><g transform='matrix(0,-1,1,0,0,0)'  ><g id="schematic" xmlns="http://www.w3.org/2000/svg">
<line class="other" x2="8.63003" y2="0.216" y1="3.096" stroke-linecap="round" stroke="#000000" stroke-width="0.432002" x1="7.55002" xmlns="http://www.w3.org/2000/svg"/>
<line class="other" x2="10.43" y2="5.976" y1="0.216" stroke-linecap="round" stroke="#000000" stroke-width="0.432002" x1="8.63003" xmlns="http://www.w3.org/2000/svg"/>
<line class="other" x2="12.23" y2="0.216" y1="5.976" stroke-linecap="round" stroke="#000000" stroke-width="0.432002" x1="10.43" xmlns="http://www.w3.org/2000/svg"/>
<line class="other" x2="14.03" y2="5.976" y1="0.216" stroke-linecap="round" stroke="#000000" stroke-width="0.432002" x1="12.23" xmlns="http://www.w3.org/2000/svg"/>
<line class="other" x2="15.8301" y2="0.216" y1="5.976" stroke-linecap="round" stroke="#000000" stroke-width="0.432002" x1="14.03" xmlns="http://www.w3.org/2000/svg"/>
<line class="other" x2="17.6301" y2="5.976" y1="0.216" stroke-linecap="round" stroke="#000000" stroke-width="0.432002" x1="15.8301" xmlns="http://www.w3.org/2000/svg"/>
<line class="other" x2="19.4301" y2="0.216" y1="5.976" stroke-linecap="round" stroke="#000000" stroke-width="0.432002" x1="17.6301" xmlns="http://www.w3.org/2000/svg"/>
<line class="other" x2="21.2301" y2="5.976" y1="0.216" stroke-linecap="round" stroke="#000000" stroke-width="0.432002" x1="19.4301" xmlns="http://www.w3.org/2000/svg"/>
<line class="other" x2="21.9501" y2="3.096" y1="5.976" stroke-linecap="round" stroke="#000000" stroke-width="0.432002" x1="21.2301" xmlns="http://www.w3.org/2000/svg"/>
<line connectorname="2" class="pin" x2="21.9501" y2="3.096" y1="3.096" stroke-linecap="round" stroke="#787878" stroke-width="0.700001" x1="29.1502" id="connector1pin" xmlns="http://www.w3.org/2000/svg"/>
<g fill="none" class="terminal" x="29.1502" stroke="none" stroke-width="0" height="0.000283465" id="connector1terminal" xmlns="http://www.w3.org/2000/svg" y="3.096" width="0.000283466"/>
<text font-family="'Droid Sans'" fill="#8c8c8c" class="text" text-anchor="middle" x="25.5501" stroke="none" stroke-width="0" xmlns="http://www.w3.org/2000/svg" y="2.046" font-size="2.50001">2</text>
<line connectorname="1" class="pin" x2="7.55002" y2="3.096" y1="3.096" stroke-linecap="round" stroke="#787878" stroke-width="0.700001" x1="0.350001" id="connector0pin" xmlns="http://www.w3.org/2000/svg"/>
<g fill="none" class="terminal" x="0.350001" stroke="none" stroke-width="0" height="0.000283465" id="connector0terminal" xmlns="http://www.w3.org/2000/svg" y="3.096" width="0.000283466"/>
<text font-family="'Droid Sans'" fill="#8c8c8c" class="text" text-anchor="middle" x="3.95001" stroke="none" stroke-width="0" xmlns="http://www.w3.org/2000/svg" y="2.046" font-size="2.50001">1</text>
</g>
</g></g></g><g partID='854399630'><g transform='translate(64.8,130.634)' ><g transform='matrix(-1,0,0,1,0,0)'  ><g id="schematic" gorn="0.2">
<rect fill="none" stroke-linecap="round" x="14.4" stroke-width="0.9" stroke="#000000" stroke-linejoin="round" height="43.2" y="14.4" width="35.55"/>
<text fill="#000000" font-family="'Droid Sans'" text-anchor="middle" x="32.4" stroke="none" id="label" gorn="0.2.1" y="29" font-size="3.5">Adafruit</text>
<text fill="#000000" font-family="'Droid Sans'" text-anchor="middle" x="32.4" stroke="none" id="label" gorn="0.2.2" y="32.5" font-size="3.5">16</text>
<text fill="#000000" font-family="'Droid Sans'" text-anchor="middle" x="32.4" stroke="none" id="label" gorn="0.2.3" y="36" font-size="3.5">NeoPixel</text>
<text fill="#000000" font-family="'Droid Sans'" text-anchor="middle" x="32.4" stroke="none" id="label" gorn="0.2.4" y="39.5" font-size="3.5">Ring</text>
<line fill="none" y2="28.8" x2="14.4" y1="28.8" stroke-linecap="round" stroke-width="0.699998" stroke="#787878" stroke-linejoin="round" x1="0.349999"/>
<rect fill="none" connectorName="IN" x="0" stroke-width="0" height="0.699998" id="connector18pin" gorn="0.2.6" y="28.45" width="14.4"/>
<g fill="none" x="0" stroke-width="0" height="0.699998" id="connector18terminal" gorn="0.2.7" y="28.45" width="0"/>
<text fill="#8c8c8c" font-family="'Droid Sans'" text-anchor="start" x="15.8" stroke="none" id="label18" gorn="0.2.8" y="29.5" font-size="3.5">IN</text>
<line fill="none" y2="28.8" x2="64.45" y1="28.8" stroke-linecap="round" stroke-width="0.699998" stroke="#787878" stroke-linejoin="round" x1="50.05"/>
<rect fill="none" connectorname="OUT" x="50.4" stroke-width="0" height="0.699998" id="connector19pin" gorn="0.2.10" y="28.45" width="14.4"/>
<g fill="none" x="64.8" stroke-width="0" height="0.699998" id="connector19terminal" gorn="0.2.11" y="28.45" width="0"/>
<text fill="#8c8c8c" font-family="'Droid Sans'" text-anchor="end" x="49" stroke="none" id="label19" gorn="0.2.12" y="29.5" font-size="3.5">OUT</text>
<line fill="none" y2="14.4" x2="28.8" y1="0.349999" stroke-linecap="round" stroke-width="0.699998" stroke="#787878" stroke-linejoin="round" x1="28.8"/>
<rect fill="none" connectorname="VDD" x="28.45" stroke-width="0" height="14.4" id="connector20pin" gorn="0.2.14" y="0" width="0.699998"/>
<g fill="none" x="28.45" stroke-width="0" height="0" id="connector20terminal" gorn="0.2.15" y="0" width="0.699998"/>
<g transform="matrix(1, 0, 0, 1, 30.2, 16)">
<g>
<g>
<g>
<g transform="rotate(270)">
<g>
<g>
<g>
<text fill="#8c8c8c" font-family="'Droid Sans'" text-anchor="end" x="0" stroke="none" id="label20" gorn="0.2.16.0.0.0.0.0.0" y="0" font-size="3.5">VDD</text>
</g>
</g>
</g>
</g>
</g>
</g>
</g>
</g>
<line fill="none" y2="71.65" x2="28.8" y1="57.6" stroke-linecap="round" stroke-width="0.699998" stroke="#787878" stroke-linejoin="round" x1="28.8"/>
<rect fill="none" connectorname="GND" x="28.45" stroke-width="0" height="14.4" id="connector21pin" gorn="0.2.18" y="57.6" width="0.699998"/>
<g fill="none" x="28.45" stroke-width="0" height="0" id="connector21terminal" gorn="0.2.19" y="72" width="0.699998"/>
<g transform="matrix(1, 0, 0, 1, 30.2, 56)">
<g>
<g>
<g>
<g transform="rotate(270)">
<g>
<g>
<g>
<text fill="#8c8c8c" font-family="'Droid Sans'" text-anchor="start" x="0" stroke="none" id="label21" gorn="0.2.20.0.0.0.0.0.0" y="0" font-size="3.5">GND</text>
</g>
</g>
</g>
</g>
</g>
</g>
</g>
</g>
<rect fill="none" connectorname="VDD" x="28.45" stroke-width="0" height="14.4" id="connector22pin" gorn="0.2.21" y="0" width="0.699998"/>
<g fill="none" x="28.45" stroke-width="0" height="0" id="connector22terminal" gorn="0.2.22" y="0" width="0.699998"/>
<rect fill="none" connectorname="GND" x="28.45" stroke-width="0" height="14.4" id="connector23pin" gorn="0.2.23" y="57.6" width="0.699998"/>
<g fill="none" x="28.45" stroke-width="0" height="0" id="connector23terminal" gorn="0.2.24" y="72" width="0.699998"/>
</g>
</g></g></g><g partID='854371520'><line stroke-linecap='round' stroke='#fff800' x1='230.4' y1='123.556' x2='288.141' y2='123.556' stroke-width='0.699998' /></g><g partID='854371450'><line stroke-linecap='round' stroke='#fff800' x1='230.469' y1='130.634' x2='230.4' y2='123.556' stroke-width='0.699998' /></g><g partID='854371590'><line stroke-linecap='round' stroke='#fff800' x1='288.141' y1='123.556' x2='288' y2='80.2196' stroke-width='0.699998' /></g><g partID='854371730'><line stroke-linecap='round' stroke='#25cc35' x1='302.274' y1='130.824' x2='302.4' y2='80.2344' stroke-width='0.699998' /></g><g partID='854371660'><line stroke-linecap='round' stroke='#25cc35' x1='237.597' y1='130.634' x2='302.274' y2='130.824' stroke-width='0.699998' /></g><g partID='854372330'><line stroke-linecap='round' stroke='#404040' x1='194.4' y1='130.634' x2='187.2' y2='94.6344' stroke-width='0.699998' /></g><g partID='854372400'><line stroke-linecap='round' stroke='#404040' x1='201.67' y1='130.634' x2='201.6' y2='94.6344' stroke-width='0.699998' /></g><g partID='854372470'><line stroke-linecap='round' stroke='#404040' x1='208.798' y1='130.634' x2='216' y2='94.6344' stroke-width='0.699998' /></g><g partID='854372540'><line stroke-linecap='round' stroke='#404040' x1='216.07' y1='130.634' x2='230.4' y2='94.6344' stroke-width='0.699998' /></g><g partID='854372870'><line stroke-linecap='round' stroke='#404040' x1='223.132' y1='44.4136' x2='230.4' y2='69.4334' stroke-width='0.699998' /></g><circle  fill="black" cx="223.132" cy="44.4136" r="1.44" stroke-width="0" stroke="none" /><g partID='854373540'><line stroke-linecap='round' stroke='#404040' x1='259.069' y1='44.4136' x2='223.132' y2='44.4136' stroke-width='0.699998' /></g><g partID='854372760'><line stroke-linecap='round' stroke='#404040' x1='259.184' y1='46.3396' x2='259.069' y2='44.4136' stroke-width='0.699998' /></g><circle  fill="black" cx="259.184" cy="46.3396" r="1.44" stroke-width="0" stroke="none" /><g partID='854372980'><line stroke-linecap='round' stroke='#404040' x1='230.332' y1='44.4136' x2='216.199' y2='44.4136' stroke-width='0.699998' /></g><g partID='854373110'><line stroke-linecap='round' stroke='#404040' x1='216.199' y1='44.4136' x2='216' y2='69.4334' stroke-width='0.699998' /></g><circle  fill="black" cx="216.199" cy="44.4136" r="1.44" stroke-width="0" stroke="none" /><g partID='854373390'><line stroke-linecap='round' stroke='#404040' x1='201.663' y1='44.4136' x2='201.6' y2='69.4334' stroke-width='0.699998' /></g><circle  fill="black" cx="201.663" cy="44.4136" r="1.44" stroke-width="0" stroke="none" /><g partID='854373240'><line stroke-linecap='round' stroke='#404040' x1='216.199' y1='44.4136' x2='201.663' y2='44.4136' stroke-width='0.699998' /></g><g partID='854373690'><line stroke-linecap='round' stroke='#404040' x1='201.663' y1='44.4136' x2='187.195' y2='44.4136' stroke-width='0.699998' /></g><g partID='854373880'><line stroke-linecap='round' stroke='#404040' x1='187.195' y1='44.4136' x2='187.2' y2='69.4334' stroke-width='0.699998' /></g><circle  fill="black" cx="187.195" cy="44.4136" r="1.44" stroke-width="0" stroke="none" /><g partID='854374100'><line stroke-linecap='round' stroke='#404040' x1='165.6' y1='73.0344' x2='165.6' y2='73.0339' stroke-width='0.699998' /></g><g partID='854374170'><line stroke-linecap='round' stroke='#404040' x1='187.195' y1='44.4136' x2='165.6' y2='44.2342' stroke-width='0.699998' /></g><g partID='854374680'><line stroke-linecap='round' stroke='#404040' x1='179.927' y1='109.019' x2='165.6' y2='94.6344' stroke-width='0.699998' /></g><g partID='854374400'><line stroke-linecap='round' stroke='#404040' x1='179.998' y1='130.634' x2='179.927' y2='109.019' stroke-width='0.699998' /></g><g partID='854374820'><line stroke-linecap='round' stroke='#418dd9' x1='316.81' y1='15.3411' x2='316.8' y2='76.2596' stroke-width='0.699998' /></g><g partID='854374750'><line stroke-linecap='round' stroke='#418dd9' x1='136.722' y1='15.3411' x2='316.81' y2='15.3411' stroke-width='0.699998' /></g><g partID='854374540'><line stroke-linecap='round' stroke='#418dd9' x1='165.794' y1='116.287' x2='136.722' y2='116.287' stroke-width='0.699998' /></g><g partID='854374610'><line stroke-linecap='round' stroke='#418dd9' x1='136.722' y1='116.287' x2='136.722' y2='15.3411' stroke-width='0.699998' /></g><g partID='854374470'><line stroke-linecap='round' stroke='#418dd9' x1='165.6' y1='130.634' x2='165.794' y2='116.287' stroke-width='0.699998' /></g><g partID='854379260'><line stroke-linecap='round' stroke='#404040' x1='258.64' y1='166.5' x2='259.184' y2='46.3396' stroke-width='0.699998' /></g><circle  fill="black" cx="258.64" cy="166.5" r="1.44" stroke-width="0" stroke="none" /><circle  fill="black" cx="259.184" cy="46.3396" r="1.44" stroke-width="0" stroke="none" /><g partID='854378890'><line stroke-linecap='round' stroke='#404040' x1='252.002' y1='166.608' x2='258.64' y2='166.5' stroke-width='0.699998' /></g><g partID='854400270'><line stroke-linecap='round' stroke='#404040' x1='259.254' y1='224.208' x2='36.0978' y2='224.208' stroke-width='0.699998' /></g><g partID='854400000'><line stroke-linecap='round' stroke='#404040' x1='36.0978' y1='224.208' x2='36' y2='195.434' stroke-width='0.699998' /></g><g partID='854399730'><line stroke-linecap='round' stroke='#404040' x1='258.64' y1='166.5' x2='259.254' y2='224.208' stroke-width='0.699998' /></g><g partID='854400680'><line stroke-linecap='round' stroke='#418dd9' x1='122.352' y1='209.781' x2='57.5847' y2='209.781' stroke-width='0.699998' /></g><g partID='854400610'><line stroke-linecap='round' stroke='#418dd9' x1='57.5847' y1='209.781' x2='57.6' y2='159.434' stroke-width='0.699998' /></g><g partID='854400540'><line stroke-linecap='round' stroke='#418dd9' x1='122.549' y1='202.598' x2='122.352' y2='209.781' stroke-width='0.699998' /></g><g partID='854400890'><line stroke-linecap='round' stroke='#cc1414' x1='100.865' y1='123.527' x2='36.0978' y2='123.527' stroke-width='0.699998' /></g><circle  fill="black" cx="36.0978" cy="123.527" r="1.44" stroke-width="0" stroke="none" /><g partID='854400820'><line stroke-linecap='round' stroke='#cc1414' x1='36.0978' y1='123.527' x2='36' y2='137.834' stroke-width='0.699998' /></g><g partID='854400750'><line stroke-linecap='round' stroke='#cc1414' x1='100.872' y1='130.634' x2='100.865' y2='123.527' stroke-width='0.699998' /></g><g partID='854400960'><line stroke-linecap='round' stroke='#cc1414' x1='36.0978' y1='123.527' x2='36.0978' y2='1.0517' stroke-width='0.699998' /></g><g partID='854401070'><line stroke-linecap='round' stroke='#cc1414' x1='36.0978' y1='1.0517' x2='345.508' y2='1.0517' stroke-width='0.699998' /></g><g partID='854401180'><line stroke-linecap='round' stroke='#cc1414' x1='345.508' y1='1.0517' x2='345.375' y2='46.3396' stroke-width='0.699998' /></g><g partID='72780' id='partLabel'><g transform='translate(189.075,59.8999)' ><g font-size='5' font-style='normal' font-weight='normal' fill='#000000' font-family="'DroidSans'" id='schematicLabel' fill-opacity='1' stroke='none' ><text x='0' y='3.75'>S1</text></g></g></g><g partID='72870' id='partLabel'><g transform='translate(232.275,59.8999)' ><g font-size='5' font-style='normal' font-weight='normal' fill='#000000' font-family="'DroidSans'" id='schematicLabel' fill-opacity='1' stroke='none' ><text x='0' y='3.75'>S4</text></g></g></g><g partID='72830' id='partLabel'><g transform='translate(203.475,59.8999)' ><g font-size='5' font-style='normal' font-weight='normal' fill='#000000' font-family="'DroidSans'" id='schematicLabel' fill-opacity='1' stroke='none' ><text x='0' y='3.75'>S2</text></g></g></g><g partID='72850' id='partLabel'><g transform='translate(217.875,59.8999)' ><g font-size='5' font-style='normal' font-weight='normal' fill='#000000' font-family="'DroidSans'" id='schematicLabel' fill-opacity='1' stroke='none' ><text x='0' y='3.75'>S3</text></g></g></g></svg>